<?xml version="1.0" standalone="no"?>
<!DOCTYPE svg PUBLIC "-//W3C//DTD SVG 20010904//EN"
 "http://www.w3.org/TR/2001/REC-SVG-20010904/DTD/svg10.dtd">
<svg version="1.0" xmlns="http://www.w3.org/2000/svg"
 width="70" viewBox="0 0 900 800.000000"
 preserveAspectRatio="xMidYMid meet">

<g transform="translate(0.000000,801.000000) scale(0.100000,-0.100000)"
fill="#000000" stroke="none">
<path d="M5940 7013 c-1491 -54 -2711 -1196 -2871 -2688 -23 -221 -12 -556 27
-795 178 -1082 974 -2008 2015 -2345 321 -104 600 -147 939 -147 354 0 640 47
970 158 430 146 813 386 1146 718 573 573 876 1305 876 2116 0 683 -228 1328
-661 1870 -156 195 -411 433 -626 582 -529 368 -1168 555 -1815 531z m196
-1090 c66 -43 88 -119 54 -187 -31 -64 -75 -90 -146 -84 -47 4 -61 10 -90 40
-77 76 -58 194 39 239 47 22 102 19 143 -8z m-271 -157 c0 -13 -16 -24 -60
-41 -33 -12 -72 -28 -87 -35 -31 -14 -58 -8 -58 14 0 25 134 87 180 83 17 -1
25 -8 25 -21z m523 -16 c63 -30 84 -52 63 -73 -8 -8 -26 -4 -68 16 -32 14 -75
33 -95 41 -36 14 -47 33 -31 50 12 11 61 -1 131 -34z m-818 -48 c107 -53 107
-212 0 -267 -140 -72 -284 106 -183 226 49 58 119 74 183 41z m1118 -9 c70
-52 89 -130 50 -198 -77 -133 -278 -78 -278 76 0 116 137 190 228 122z m-496
-231 c118 -39 226 -129 278 -232 81 -160 62 -360 -46 -498 -138 -176 -367
-230 -574 -134 -68 31 -178 139 -209 205 -128 267 -1 569 277 658 76 24 202
25 274 1z m-792 -59 c0 -8 -13 -45 -29 -81 -15 -37 -31 -75 -34 -84 -7 -20
-46 -25 -48 -5 -3 34 32 133 62 171 20 26 49 26 49 -1z m1379 -30 c10 -21 27
-64 37 -96 15 -49 16 -60 4 -67 -23 -14 -36 -1 -55 53 -10 29 -27 69 -37 90
-21 41 -17 57 12 57 13 0 27 -14 39 -37z m-1417 -234 c60 -43 79 -137 40 -200
-78 -127 -272 -74 -274 75 -1 59 27 106 82 134 52 27 105 24 152 -9z m1554 4
c112 -73 81 -245 -49 -272 -49 -11 -97 4 -135 43 -31 30 -36 42 -39 93 -3 46
0 65 17 91 41 65 142 88 206 45z m-1589 -325 c4 -7 22 -49 40 -93 29 -69 31
-81 19 -94 -12 -12 -18 -12 -30 -2 -20 17 -79 170 -72 187 7 17 32 18 43 2z
m1499 -12 c5 -14 -46 -149 -69 -180 -8 -11 -19 -15 -31 -10 -22 8 -19 22 24
127 25 58 37 77 52 77 10 0 21 -6 24 -14z m-1236 -219 c61 -43 80 -139 40
-205 -26 -42 -99 -76 -144 -68 -113 22 -169 148 -104 238 45 64 144 80 208 35z
m1092 7 c91 -46 102 -176 21 -243 -52 -43 -103 -49 -160 -19 -61 31 -86 76
-80 146 3 45 9 59 39 89 52 52 112 61 180 27z m-550 -230 c36 -19 64 -61 72
-109 9 -52 -25 -122 -71 -148 -65 -37 -165 -15 -202 45 -84 137 57 285 201
212z m-347 -42 c52 -21 70 -34 70 -48 0 -15 -7 -19 -32 -18 -42 2 -161 58
-170 80 -8 21 15 35 41 24 12 -5 53 -22 91 -38z m662 22 c9 -23 -13 -39 -101
-74 -72 -29 -80 -30 -94 -16 -22 22 -10 32 85 72 90 38 101 40 110 18z m-2187
-1124 l0 -510 75 0 75 0 0 204 0 204 203 253 c182 229 205 254 235 257 18 2
32 -1 32 -8 0 -6 -92 -127 -205 -270 l-205 -259 0 -221 0 -220 -135 0 -135 0
0 540 0 540 30 0 30 0 0 -510z m210 363 l-1 -148 -29 -35 -30 -34 0 147 0 147
-25 0 -25 0 0 -182 c-1 -179 -1 -184 -25 -210 -13 -16 -27 -28 -30 -28 -3 0
-5 110 -5 245 l0 245 85 0 85 0 0 -147z m626 140 c-2 -5 -108 -141 -235 -303
-127 -162 -229 -300 -227 -306 3 -7 61 -88 130 -182 69 -93 126 -173 126 -176
0 -3 -15 -6 -34 -6 -32 0 -40 8 -171 185 -96 130 -134 189 -127 198 77 100
354 453 380 485 l34 42 -95 0 -96 0 -210 -269 -211 -270 0 -185 0 -186 -30 0
-30 0 0 198 0 197 228 292 227 292 173 1 c95 0 171 -3 168 -7z m738 -8 c185
-48 344 -203 391 -381 49 -184 -5 -383 -141 -518 -178 -179 -454 -211 -660
-78 -163 106 -254 270 -254 456 0 146 53 271 159 377 133 133 331 189 505 144z
m948 4 c247 -52 427 -307 404 -575 -20 -240 -211 -454 -432 -485 -38 -5 -164
-8 -279 -7 l-210 3 -3 488 -2 488 257 -3 258 -3 60 -30 c169 -85 279 -293 247
-467 -26 -140 -126 -274 -247 -334 -57 -28 -67 -29 -212 -32 l-153 -3 0 330 0
331 30 0 30 0 0 -301 0 -301 113 4 c94 2 120 7 161 27 66 32 147 116 182 187
26 53 29 69 29 159 0 89 -3 107 -28 161 -35 74 -113 155 -182 186 -46 20 -68
22 -267 26 l-218 4 0 -427 0 -426 238 3 237 3 58 29 c188 92 302 308 269 509
-26 152 -131 301 -258 363 l-59 29 -270 5 -270 5 -3 33 -3 32 235 0 c133 0
258 -5 288 -11z m496 -496 l2 -503 285 0 285 0 0 70 0 70 -215 0 -215 0 0 75
0 75 30 0 c29 0 30 -2 30 -45 l0 -45 215 0 215 0 0 -135 0 -135 -350 0 -350 0
0 541 0 540 33 -3 32 -3 3 -502z m630 370 l3 -133 -191 0 -190 0 0 30 0 30
155 0 155 0 0 70 0 70 -230 0 -230 0 0 -215 0 -215 175 0 175 0 0 -30 0 -30
-205 0 -205 0 0 280 0 280 293 -2 292 -3 3 -132z m-110 0 l3 -33 -160 0 -161
0 0 -115 0 -115 180 0 180 0 0 -135 0 -135 -230 0 -230 0 0 -120 0 -120 213
-2 212 -3 3 -27 3 -28 -245 0 -246 0 0 185 0 185 230 0 230 0 0 70 0 70 -180
0 -180 0 0 173 c0 96 3 177 7 181 4 3 88 5 187 4 l181 -3 3 -32z m-1014 -89
c57 -20 133 -91 164 -155 70 -146 39 -296 -85 -409 -65 -59 -127 -82 -215 -78
-60 3 -63 4 -66 29 -3 26 -2 26 76 31 89 7 120 20 176 75 113 111 116 284 7
390 -68 66 -92 73 -261 73 l-150 0 0 -350 0 -350 -28 0 -29 0 -6 257 c-4 141
-7 312 -7 380 l0 123 188 0 c147 0 199 -4 236 -16z m-1874 -592 c99 -133 180
-247 180 -252 0 -6 -63 -10 -162 -10 l-163 1 -122 166 c-119 160 -123 167
-123 216 l0 51 138 -187 137 -186 93 -1 94 0 -38 53 c-21 28 -70 95 -109 147
-154 206 -149 199 -135 226 8 13 17 23 22 22 4 -2 89 -112 188 -246z m1343
-543 c20 -5 37 -16 37 -24 0 -10 -13 -12 -58 -8 -44 4 -61 2 -70 -10 -20 -23
-4 -45 46 -63 92 -34 120 -91 66 -133 -45 -36 -164 -18 -164 24 0 18 8 18 40
0 27 -15 78 -19 96 -7 36 25 16 62 -47 83 -88 30 -107 103 -35 135 38 16 42
16 89 3z m137 -69 l5 -74 69 77 c60 67 96 94 96 70 0 -5 -22 -33 -48 -62 l-49
-55 54 -69 c29 -38 53 -71 53 -73 0 -2 -8 -4 -18 -4 -15 0 -58 47 -105 114
-13 18 -57 -45 -57 -81 0 -23 -5 -33 -15 -33 -13 0 -15 22 -15 136 0 104 3
135 13 132 7 -3 14 -32 17 -78z m-680 50 c24 -24 26 -63 5 -84 -14 -14 -14
-17 5 -36 29 -29 26 -74 -6 -99 -22 -17 -41 -21 -105 -21 l-79 0 0 130 0 130
80 0 c67 0 83 -3 100 -20z m125 -44 c22 -36 43 -63 47 -60 4 2 21 29 39 60 29
51 53 74 65 62 3 -3 -18 -43 -46 -89 -39 -66 -50 -93 -50 -126 0 -32 -4 -43
-15 -43 -11 0 -15 12 -15 50 0 43 -7 62 -50 130 -41 65 -47 80 -32 80 11 0 32
-24 57 -64z"/>
<path d="M5989 5861 c-72 -72 7 -190 102 -151 40 17 59 46 59 91 0 29 -7 43
-31 63 -43 36 -91 35 -130 -3z"/>
<path d="M5436 5634 c-74 -75 17 -199 109 -150 59 32 71 95 29 145 -35 42 -98
44 -138 5z"/>
<path d="M6539 5631 c-41 -42 -39 -83 6 -128 32 -32 40 -35 73 -30 115 19 107
187 -10 187 -30 0 -46 -7 -69 -29z"/>
<path d="M5950 5414 c-202 -54 -338 -263 -301 -462 42 -225 256 -382 470 -343
334 61 465 459 228 695 -109 109 -252 149 -397 110z"/>
<path d="M5209 5081 c-40 -41 -40 -89 2 -130 42 -43 90 -43 130 0 40 42 40 90
0 130 -22 21 -39 29 -66 29 -27 0 -44 -8 -66 -29z"/>
<path d="M6769 5081 c-43 -43 -37 -102 15 -143 56 -46 146 3 146 79 0 85 -100
125 -161 64z"/>
<path d="M5439 4531 c-21 -22 -29 -39 -29 -66 0 -51 44 -95 95 -95 27 0 44 8
66 29 40 41 40 89 -2 130 -41 42 -89 42 -130 2z"/>
<path d="M6547 4536 c-33 -31 -43 -68 -27 -107 26 -63 95 -78 149 -33 26 21
31 33 31 69 0 36 -5 48 -31 69 -40 34 -87 34 -122 2z"/>
<path d="M5989 4301 c-41 -42 -40 -92 2 -132 42 -40 90 -40 130 0 21 22 29 39
29 66 0 51 -44 95 -95 95 -27 0 -44 -8 -66 -29z"/>
<path d="M5600 3659 c-115 -22 -253 -127 -312 -236 -119 -219 -47 -499 163
-634 181 -116 439 -87 593 67 154 154 183 412 66 594 -106 165 -308 248 -510
209z m235 -51 c150 -38 267 -167 296 -326 38 -200 -56 -389 -239 -480 -215
-106 -479 -9 -585 215 -30 64 -32 75 -32 178 0 103 2 114 31 176 95 201 304
294 529 237z"/>
<path d="M5566 3536 c-112 -47 -183 -125 -217 -238 -53 -173 33 -363 201 -446
49 -24 66 -27 155 -27 89 0 106 3 156 27 75 37 142 106 181 186 30 60 33 75
33 157 0 76 -4 99 -27 147 -35 76 -95 138 -170 179 -57 30 -73 34 -158 36 -83
3 -102 1 -154 -21z m219 -21 c152 -39 246 -161 248 -320 2 -130 -61 -238 -174
-300 -43 -23 -69 -30 -134 -33 -145 -7 -253 56 -317 186 -30 60 -33 76 -33
152 0 73 4 92 28 137 37 72 77 114 136 147 84 45 155 54 246 31z"/>
<path d="M5615 3448 c-63 -22 -125 -80 -155 -143 -46 -100 -32 -204 40 -287
56 -65 115 -91 204 -91 158 0 267 110 267 268 0 108 -59 203 -155 246 -46 21
-151 24 -201 7z"/>
<path d="M5570 2300 l0 -40 49 0 c32 0 55 6 65 16 37 36 10 64 -61 64 l-53 0
0 -40z"/>
<path d="M5570 2185 l0 -45 51 0 c63 0 89 13 89 45 0 32 -26 45 -89 45 l-51 0
0 -45z"/>
</g>
</svg>
